<svg xmlns="http://www.w3.org/2000/svg" xmlns:xlink="http://www.w3.org/1999/xlink" width="4000" zoomAndPan="magnify" viewBox="0 0 3000 599.999999" height="800" preserveAspectRatio="xMidYMid meet" version="1.2"><defs/><g id="6cf4cd6d9b"><g style="fill:#000000;fill-opacity:1;"><g transform="translate(-14.684343, 495.082313)"><path style="stroke:none" d="M 126.417969 5.769531 C 101.746094 5.769531 80.113281 -0.480469 61.527344 -12.976562 C 42.941406 -25.476562 29.480469 -42.460938 21.148438 -63.929688 L 51.433594 -78.351562 C 58.804688 -62.648438 69.136719 -50.152344 82.4375 -40.859375 C 95.734375 -31.566406 110.398438 -26.917969 126.417969 -26.917969 C 141.800781 -26.917969 154.78125 -30.683594 165.355469 -38.214844 C 175.929688 -45.746094 181.21875 -55.597656 181.21875 -67.777344 C 181.21875 -76.75 178.652344 -83.878906 173.527344 -89.167969 C 168.398438 -94.453125 162.472656 -98.539062 155.742188 -101.425781 C 149.011719 -104.308594 143.082031 -106.390625 137.957031 -107.671875 L 100.945312 -118.246094 C 77.230469 -124.976562 60.085938 -134.429688 49.511719 -146.609375 C 38.933594 -158.785156 33.648438 -172.886719 33.648438 -188.910156 C 33.648438 -203.96875 37.492188 -217.109375 45.183594 -228.324219 C 52.875 -239.539062 63.289062 -248.191406 76.429688 -254.28125 C 89.566406 -260.371094 104.148438 -263.414062 120.171875 -263.414062 C 141.960938 -263.414062 161.75 -257.726562 179.535156 -246.351562 C 197.320312 -234.972656 209.898438 -219.191406 217.269531 -199.003906 L 186.503906 -184.582031 C 180.097656 -199.003906 170.882812 -210.296875 158.867188 -218.46875 C 146.847656 -226.640625 133.46875 -230.726562 118.730469 -230.726562 C 104.308594 -230.726562 92.773438 -227.042969 84.121094 -219.671875 C 75.46875 -212.300781 71.140625 -203.007812 71.140625 -191.792969 C 71.140625 -183.140625 73.382812 -176.25 77.871094 -171.125 C 82.355469 -165.996094 87.5625 -162.148438 93.492188 -159.585938 C 99.421875 -157.023438 104.628906 -155.101562 109.113281 -153.820312 L 151.894531 -141.320312 C 172.726562 -135.230469 188.988281 -125.777344 200.683594 -112.960938 C 212.382812 -100.140625 218.230469 -85.082031 218.230469 -67.777344 C 218.230469 -53.675781 214.304688 -41.019531 206.453125 -29.800781 C 198.601562 -18.585938 187.785156 -9.855469 174.007812 -3.605469 C 160.226562 2.644531 144.363281 5.769531 126.417969 5.769531 Z M 126.417969 5.769531 "/></g></g><g style="fill:#000000;fill-opacity:1;"><g transform="translate(199.628758, 495.082313)"><path style="stroke:none" d="M 154.300781 5.769531 C 130.265625 5.769531 108.554688 -0.0820312 89.167969 -11.777344 C 69.777344 -23.472656 54.476562 -39.578125 43.261719 -60.085938 C 32.046875 -80.59375 26.4375 -103.828125 26.4375 -129.785156 C 26.4375 -155.742188 31.886719 -178.734375 42.78125 -198.761719 C 53.675781 -218.789062 68.496094 -234.574219 87.242188 -246.109375 C 105.992188 -257.644531 127.058594 -263.414062 150.453125 -263.414062 C 169.039062 -263.414062 185.625 -259.96875 200.203125 -253.078125 C 214.785156 -246.191406 227.203125 -236.898438 237.457031 -225.199219 C 247.710938 -213.503906 255.5625 -200.363281 261.011719 -185.785156 C 266.457031 -171.203125 269.183594 -156.222656 269.183594 -140.839844 C 269.183594 -137.636719 269.023438 -134.03125 268.703125 -130.023438 C 268.382812 -126.019531 267.902344 -121.933594 267.257812 -117.765625 L 49.511719 -117.765625 L 49.511719 -151.414062 L 246.589844 -151.414062 L 229.285156 -136.996094 C 232.167969 -154.621094 230.167969 -170.402344 223.277344 -184.34375 C 216.386719 -198.28125 206.535156 -209.335938 193.714844 -217.507812 C 180.898438 -225.679688 166.476562 -229.765625 150.453125 -229.765625 C 134.429688 -229.765625 119.609375 -225.601562 105.992188 -217.269531 C 92.371094 -208.9375 81.714844 -197.320312 74.023438 -182.417969 C 66.335938 -167.519531 63.289062 -149.8125 64.890625 -129.304688 C 63.289062 -108.792969 66.574219 -90.929688 74.746094 -75.707031 C 82.917969 -60.484375 94.132812 -48.710938 108.394531 -40.378906 C 122.652344 -32.046875 137.957031 -27.878906 154.300781 -27.878906 C 173.207031 -27.878906 189.070312 -32.367188 201.886719 -41.339844 C 214.703125 -50.3125 225.121094 -61.527344 233.132812 -74.988281 L 263.894531 -58.644531 C 258.765625 -47.105469 250.917969 -36.453125 240.339844 -26.679688 C 229.765625 -16.902344 217.1875 -9.054688 202.609375 -3.125 C 188.027344 2.804688 171.925781 5.769531 154.300781 5.769531 Z M 154.300781 5.769531 "/></g></g><g style="fill:#000000;fill-opacity:1;"><g transform="translate(464.879329, 495.082313)"><path style="stroke:none" d="M 154.78125 5.769531 C 129.464844 5.769531 107.191406 -0.160156 87.964844 -12.015625 C 68.738281 -23.875 53.675781 -39.976562 42.78125 -60.324219 C 31.886719 -80.675781 26.4375 -103.667969 26.4375 -129.304688 C 26.4375 -154.941406 31.886719 -177.851562 42.78125 -198.042969 C 53.675781 -218.230469 68.738281 -234.171875 87.964844 -245.871094 C 107.191406 -257.566406 129.464844 -263.414062 154.78125 -263.414062 C 170.800781 -263.414062 185.863281 -260.53125 199.964844 -254.761719 C 214.0625 -248.992188 226.5625 -241.222656 237.457031 -231.449219 C 248.351562 -221.675781 256.523438 -210.378906 261.972656 -197.5625 L 229.285156 -180.738281 C 222.875 -194.515625 213.101562 -205.730469 199.964844 -214.382812 C 186.824219 -223.035156 171.765625 -227.363281 154.78125 -227.363281 C 137.796875 -227.363281 122.492188 -223.117188 108.875 -214.625 C 95.253906 -206.132812 84.519531 -194.4375 76.667969 -179.535156 C 68.816406 -164.632812 64.890625 -147.730469 64.890625 -128.824219 C 64.890625 -110.238281 68.816406 -93.492188 76.667969 -78.589844 C 84.519531 -63.691406 95.253906 -51.914062 108.875 -43.261719 C 122.492188 -34.609375 137.796875 -30.28125 154.78125 -30.28125 C 171.765625 -30.28125 186.746094 -34.609375 199.722656 -43.261719 C 212.703125 -51.914062 222.554688 -63.449219 229.285156 -77.871094 L 261.972656 -60.085938 C 256.523438 -47.585938 248.351562 -36.371094 237.457031 -26.4375 C 226.5625 -16.503906 214.0625 -8.652344 199.964844 -2.882812 C 185.863281 2.882812 170.800781 5.769531 154.78125 5.769531 Z M 154.78125 5.769531 "/></g></g><g style="fill:#000000;fill-opacity:1;"><g transform="translate(722.921775, 495.082313)"><path style="stroke:none" d="M 128.34375 5.769531 C 110.398438 5.769531 94.054688 1.523438 79.3125 -6.96875 C 64.570312 -15.460938 52.957031 -27.320312 44.464844 -42.539062 C 35.972656 -57.761719 31.726562 -75.308594 31.726562 -95.175781 L 31.726562 -257.644531 L 67.777344 -257.644531 L 67.777344 -99.5 C 67.777344 -85.722656 70.582031 -73.625 76.1875 -63.210938 C 81.796875 -52.796875 89.648438 -44.703125 99.742188 -38.933594 C 109.835938 -33.167969 121.453125 -30.28125 134.589844 -30.28125 C 147.730469 -30.28125 159.425781 -33.246094 169.679688 -39.175781 C 179.9375 -45.105469 187.945312 -53.597656 193.714844 -64.652344 C 199.484375 -75.707031 202.367188 -88.925781 202.367188 -104.308594 L 202.367188 -257.644531 L 238.417969 -257.644531 L 238.417969 0 L 202.367188 0 L 202.367188 -49.992188 L 210.539062 -48.066406 C 204.449219 -31.40625 194.035156 -18.265625 179.292969 -8.652344 C 164.554688 0.960938 147.570312 5.769531 128.34375 5.769531 Z M 128.34375 5.769531 "/></g></g><g style="fill:#000000;fill-opacity:1;"><g transform="translate(967.98959, 495.082313)"><path style="stroke:none" d="M 37.011719 0 L 37.011719 -257.644531 L 73.0625 -257.644531 L 73.0625 -215.347656 L 68.257812 -221.59375 C 74.34375 -233.773438 83.558594 -243.386719 95.894531 -250.4375 C 108.234375 -257.484375 123.214844 -261.011719 140.839844 -261.011719 L 157.183594 -261.011719 L 157.183594 -224.960938 L 134.589844 -224.960938 C 116.003906 -224.960938 101.105469 -219.191406 89.886719 -207.65625 C 78.671875 -196.117188 73.0625 -179.773438 73.0625 -158.625 L 73.0625 0 Z M 37.011719 0 "/></g></g><g style="fill:#000000;fill-opacity:1;"><g transform="translate(1100.129895, 495.082313)"><path style="stroke:none" d="M 154.300781 5.769531 C 130.265625 5.769531 108.554688 -0.0820312 89.167969 -11.777344 C 69.777344 -23.472656 54.476562 -39.578125 43.261719 -60.085938 C 32.046875 -80.59375 26.4375 -103.828125 26.4375 -129.785156 C 26.4375 -155.742188 31.886719 -178.734375 42.78125 -198.761719 C 53.675781 -218.789062 68.496094 -234.574219 87.242188 -246.109375 C 105.992188 -257.644531 127.058594 -263.414062 150.453125 -263.414062 C 169.039062 -263.414062 185.625 -259.96875 200.203125 -253.078125 C 214.785156 -246.191406 227.203125 -236.898438 237.457031 -225.199219 C 247.710938 -213.503906 255.5625 -200.363281 261.011719 -185.785156 C 266.457031 -171.203125 269.183594 -156.222656 269.183594 -140.839844 C 269.183594 -137.636719 269.023438 -134.03125 268.703125 -130.023438 C 268.382812 -126.019531 267.902344 -121.933594 267.257812 -117.765625 L 49.511719 -117.765625 L 49.511719 -151.414062 L 246.589844 -151.414062 L 229.285156 -136.996094 C 232.167969 -154.621094 230.167969 -170.402344 223.277344 -184.34375 C 216.386719 -198.28125 206.535156 -209.335938 193.714844 -217.507812 C 180.898438 -225.679688 166.476562 -229.765625 150.453125 -229.765625 C 134.429688 -229.765625 119.609375 -225.601562 105.992188 -217.269531 C 92.371094 -208.9375 81.714844 -197.320312 74.023438 -182.417969 C 66.335938 -167.519531 63.289062 -149.8125 64.890625 -129.304688 C 63.289062 -108.792969 66.574219 -90.929688 74.746094 -75.707031 C 82.917969 -60.484375 94.132812 -48.710938 108.394531 -40.378906 C 122.652344 -32.046875 137.957031 -27.878906 154.300781 -27.878906 C 173.207031 -27.878906 189.070312 -32.367188 201.886719 -41.339844 C 214.703125 -50.3125 225.121094 -61.527344 233.132812 -74.988281 L 263.894531 -58.644531 C 258.765625 -47.105469 250.917969 -36.453125 240.339844 -26.679688 C 229.765625 -16.902344 217.1875 -9.054688 202.609375 -3.125 C 188.027344 2.804688 171.925781 5.769531 154.300781 5.769531 Z M 154.300781 5.769531 "/></g></g><g style="fill:#000000;fill-opacity:1;"><g transform="translate(1365.380466, 495.082313)"><path style="stroke:none" d="M 37.011719 0 L 37.011719 -257.644531 L 73.0625 -257.644531 L 73.0625 -208.617188 L 67.296875 -215.828125 C 74.34375 -230.886719 84.839844 -242.585938 98.78125 -250.917969 C 112.71875 -259.25 128.023438 -263.414062 144.683594 -263.414062 C 164.554688 -263.414062 182.5 -257.804688 198.523438 -246.589844 C 214.542969 -235.375 225.921875 -220.792969 232.652344 -202.847656 L 222.554688 -202.367188 C 228.964844 -222.234375 240.101562 -237.378906 255.964844 -247.792969 C 271.824219 -258.207031 289.371094 -263.414062 308.597656 -263.414062 C 325.902344 -263.414062 341.84375 -259.25 356.425781 -250.917969 C 371.007812 -242.585938 382.703125 -231.128906 391.515625 -216.546875 C 400.328125 -201.96875 404.734375 -185.542969 404.734375 -167.277344 L 404.734375 0 L 368.683594 0 L 368.683594 -153.335938 C 368.683594 -169.039062 365.878906 -182.339844 360.273438 -193.234375 C 354.664062 -204.128906 347.054688 -212.542969 337.4375 -218.46875 C 327.824219 -224.398438 316.769531 -227.363281 304.273438 -227.363281 C 292.09375 -227.363281 281.039062 -224.398438 271.105469 -218.46875 C 261.171875 -212.542969 253.320312 -204.050781 247.550781 -192.996094 C 241.785156 -181.9375 238.898438 -168.71875 238.898438 -153.335938 L 238.898438 0 L 202.847656 0 L 202.847656 -153.335938 C 202.847656 -169.039062 200.042969 -182.339844 194.4375 -193.234375 C 188.828125 -204.128906 181.21875 -212.542969 171.605469 -218.46875 C 161.988281 -224.398438 150.933594 -227.363281 138.4375 -227.363281 C 125.9375 -227.363281 114.804688 -224.398438 105.027344 -218.46875 C 95.253906 -212.542969 87.484375 -204.050781 81.714844 -192.996094 C 75.949219 -181.9375 73.0625 -168.71875 73.0625 -153.335938 L 73.0625 0 Z M 37.011719 0 "/></g></g><g style="fill:#000000;fill-opacity:1;"><g transform="translate(1771.430026, 495.082313)"><path style="stroke:none" d="M 154.300781 5.769531 C 130.265625 5.769531 108.554688 -0.0820312 89.167969 -11.777344 C 69.777344 -23.472656 54.476562 -39.578125 43.261719 -60.085938 C 32.046875 -80.59375 26.4375 -103.828125 26.4375 -129.785156 C 26.4375 -155.742188 31.886719 -178.734375 42.78125 -198.761719 C 53.675781 -218.789062 68.496094 -234.574219 87.242188 -246.109375 C 105.992188 -257.644531 127.058594 -263.414062 150.453125 -263.414062 C 169.039062 -263.414062 185.625 -259.96875 200.203125 -253.078125 C 214.785156 -246.191406 227.203125 -236.898438 237.457031 -225.199219 C 247.710938 -213.503906 255.5625 -200.363281 261.011719 -185.785156 C 266.457031 -171.203125 269.183594 -156.222656 269.183594 -140.839844 C 269.183594 -137.636719 269.023438 -134.03125 268.703125 -130.023438 C 268.382812 -126.019531 267.902344 -121.933594 267.257812 -117.765625 L 49.511719 -117.765625 L 49.511719 -151.414062 L 246.589844 -151.414062 L 229.285156 -136.996094 C 232.167969 -154.621094 230.167969 -170.402344 223.277344 -184.34375 C 216.386719 -198.28125 206.535156 -209.335938 193.714844 -217.507812 C 180.898438 -225.679688 166.476562 -229.765625 150.453125 -229.765625 C 134.429688 -229.765625 119.609375 -225.601562 105.992188 -217.269531 C 92.371094 -208.9375 81.714844 -197.320312 74.023438 -182.417969 C 66.335938 -167.519531 63.289062 -149.8125 64.890625 -129.304688 C 63.289062 -108.792969 66.574219 -90.929688 74.746094 -75.707031 C 82.917969 -60.484375 94.132812 -48.710938 108.394531 -40.378906 C 122.652344 -32.046875 137.957031 -27.878906 154.300781 -27.878906 C 173.207031 -27.878906 189.070312 -32.367188 201.886719 -41.339844 C 214.703125 -50.3125 225.121094 -61.527344 233.132812 -74.988281 L 263.894531 -58.644531 C 258.765625 -47.105469 250.917969 -36.453125 240.339844 -26.679688 C 229.765625 -16.902344 217.1875 -9.054688 202.609375 -3.125 C 188.027344 2.804688 171.925781 5.769531 154.300781 5.769531 Z M 154.300781 5.769531 "/></g></g><g style="fill:#000000;fill-opacity:1;"><g transform="translate(2036.680597, 495.082313)"><path style="stroke:none" d="M 135.550781 2.882812 C 112.480469 2.882812 94.695312 -3.84375 82.195312 -17.304688 C 69.699219 -30.765625 63.449219 -49.992188 63.449219 -74.988281 L 63.449219 -221.59375 L 15.863281 -221.59375 L 15.863281 -257.644531 L 27.878906 -257.644531 C 38.773438 -257.644531 47.425781 -261.25 53.835938 -268.460938 C 60.246094 -275.671875 63.449219 -284.722656 63.449219 -295.621094 L 63.449219 -317.25 L 99.5 -317.25 L 99.5 -257.644531 L 156.222656 -257.644531 L 156.222656 -221.59375 L 99.5 -221.59375 L 99.5 -74.988281 C 99.5 -66.335938 100.78125 -58.722656 103.347656 -52.152344 C 105.910156 -45.585938 110.316406 -40.378906 116.566406 -36.53125 C 122.816406 -32.6875 131.226562 -30.765625 141.800781 -30.765625 C 144.363281 -30.765625 147.410156 -30.925781 150.933594 -31.246094 C 154.460938 -31.566406 157.503906 -31.886719 160.066406 -32.207031 L 160.066406 0 C 156.222656 0.960938 151.894531 1.683594 147.089844 2.164062 C 142.28125 2.644531 138.4375 2.882812 135.550781 2.882812 Z M 135.550781 2.882812 "/></g></g><g style="fill:#000000;fill-opacity:1;"><g transform="translate(2192.84809, 495.082313)"><path style="stroke:none" d="M 37.011719 0 L 37.011719 -257.644531 L 73.0625 -257.644531 L 73.0625 -215.347656 L 68.257812 -221.59375 C 74.34375 -233.773438 83.558594 -243.386719 95.894531 -250.4375 C 108.234375 -257.484375 123.214844 -261.011719 140.839844 -261.011719 L 157.183594 -261.011719 L 157.183594 -224.960938 L 134.589844 -224.960938 C 116.003906 -224.960938 101.105469 -219.191406 89.886719 -207.65625 C 78.671875 -196.117188 73.0625 -179.773438 73.0625 -158.625 L 73.0625 0 Z M 37.011719 0 "/></g></g><g style="fill:#000000;fill-opacity:1;"><g transform="translate(2324.988395, 495.082313)"><path style="stroke:none" d="M 37.011719 0 L 37.011719 -257.644531 L 73.0625 -257.644531 L 73.0625 0 Z M 37.011719 -305.234375 L 37.011719 -358.109375 L 73.0625 -358.109375 L 73.0625 -305.234375 Z M 37.011719 -305.234375 "/></g></g><g style="fill:#000000;fill-opacity:1;"><g transform="translate(2404.749598, 495.082313)"><path style="stroke:none" d="M 154.78125 5.769531 C 129.464844 5.769531 107.191406 -0.160156 87.964844 -12.015625 C 68.738281 -23.875 53.675781 -39.976562 42.78125 -60.324219 C 31.886719 -80.675781 26.4375 -103.667969 26.4375 -129.304688 C 26.4375 -154.941406 31.886719 -177.851562 42.78125 -198.042969 C 53.675781 -218.230469 68.738281 -234.171875 87.964844 -245.871094 C 107.191406 -257.566406 129.464844 -263.414062 154.78125 -263.414062 C 170.800781 -263.414062 185.863281 -260.53125 199.964844 -254.761719 C 214.0625 -248.992188 226.5625 -241.222656 237.457031 -231.449219 C 248.351562 -221.675781 256.523438 -210.378906 261.972656 -197.5625 L 229.285156 -180.738281 C 222.875 -194.515625 213.101562 -205.730469 199.964844 -214.382812 C 186.824219 -223.035156 171.765625 -227.363281 154.78125 -227.363281 C 137.796875 -227.363281 122.492188 -223.117188 108.875 -214.625 C 95.253906 -206.132812 84.519531 -194.4375 76.667969 -179.535156 C 68.816406 -164.632812 64.890625 -147.730469 64.890625 -128.824219 C 64.890625 -110.238281 68.816406 -93.492188 76.667969 -78.589844 C 84.519531 -63.691406 95.253906 -51.914062 108.875 -43.261719 C 122.492188 -34.609375 137.796875 -30.28125 154.78125 -30.28125 C 171.765625 -30.28125 186.746094 -34.609375 199.722656 -43.261719 C 212.703125 -51.914062 222.554688 -63.449219 229.285156 -77.871094 L 261.972656 -60.085938 C 256.523438 -47.585938 248.351562 -36.371094 237.457031 -26.4375 C 226.5625 -16.503906 214.0625 -8.652344 199.964844 -2.882812 C 185.863281 2.882812 170.800781 5.769531 154.78125 5.769531 Z M 154.78125 5.769531 "/></g></g><g style="fill:#000000;fill-opacity:1;"><g transform="translate(2662.79219, 495.082313)"><path style="stroke:none" d="M 126.417969 5.769531 C 101.746094 5.769531 80.113281 -0.480469 61.527344 -12.976562 C 42.941406 -25.476562 29.480469 -42.460938 21.148438 -63.929688 L 51.433594 -78.351562 C 58.804688 -62.648438 69.136719 -50.152344 82.4375 -40.859375 C 95.734375 -31.566406 110.398438 -26.917969 126.417969 -26.917969 C 141.800781 -26.917969 154.78125 -30.683594 165.355469 -38.214844 C 175.929688 -45.746094 181.21875 -55.597656 181.21875 -67.777344 C 181.21875 -76.75 178.652344 -83.878906 173.527344 -89.167969 C 168.398438 -94.453125 162.472656 -98.539062 155.742188 -101.425781 C 149.011719 -104.308594 143.082031 -106.390625 137.957031 -107.671875 L 100.945312 -118.246094 C 77.230469 -124.976562 60.085938 -134.429688 49.511719 -146.609375 C 38.933594 -158.785156 33.648438 -172.886719 33.648438 -188.910156 C 33.648438 -203.96875 37.492188 -217.109375 45.183594 -228.324219 C 52.875 -239.539062 63.289062 -248.191406 76.429688 -254.28125 C 89.566406 -260.371094 104.148438 -263.414062 120.171875 -263.414062 C 141.960938 -263.414062 161.75 -257.726562 179.535156 -246.351562 C 197.320312 -234.972656 209.898438 -219.191406 217.269531 -199.003906 L 186.503906 -184.582031 C 180.097656 -199.003906 170.882812 -210.296875 158.867188 -218.46875 C 146.847656 -226.640625 133.46875 -230.726562 118.730469 -230.726562 C 104.308594 -230.726562 92.773438 -227.042969 84.121094 -219.671875 C 75.46875 -212.300781 71.140625 -203.007812 71.140625 -191.792969 C 71.140625 -183.140625 73.382812 -176.25 77.871094 -171.125 C 82.355469 -165.996094 87.5625 -162.148438 93.492188 -159.585938 C 99.421875 -157.023438 104.628906 -155.101562 109.113281 -153.820312 L 151.894531 -141.320312 C 172.726562 -135.230469 188.988281 -125.777344 200.683594 -112.960938 C 212.382812 -100.140625 218.230469 -85.082031 218.230469 -67.777344 C 218.230469 -53.675781 214.304688 -41.019531 206.453125 -29.800781 C 198.601562 -18.585938 187.785156 -9.855469 174.007812 -3.605469 C 160.226562 2.644531 144.363281 5.769531 126.417969 5.769531 Z M 126.417969 5.769531 "/></g></g><g style="fill:#000000;fill-opacity:1;"><g transform="translate(2877.105291, 495.082313)"><path style="stroke:none" d="M 49.511719 -52.875 L 87.964844 -52.875 L 87.964844 0 L 49.511719 0 Z M 49.511719 -52.875 "/></g></g></g></svg>